<svg xmlns="http://www.w3.org/2000/svg" xmlns:xlink="http://www.w3.org/1999/xlink" viewBox="0 0 450 300"><title>Gnuplot</title><desc>Produced by GNUPLOT 5.4 patchlevel 1</desc><g id="gnuplot_canvas"><rect width="450" height="300" x="0" y="0" fill="none"/><defs><circle id="gpDot" r=".5" stroke="currentColor" stroke-width=".5"/><path id="gpPt0" stroke="currentColor" stroke-width=".242" d="M-1,0 h2 M0,-1 v2"/><path id="gpPt1" stroke="currentColor" stroke-width=".242" d="M-1,-1 L1,1 M1,-1 L-1,1"/><path id="gpPt2" stroke="currentColor" stroke-width=".242" d="M-1,0 L1,0 M0,-1 L0,1 M-1,-1 L1,1 M-1,1 L1,-1"/><rect id="gpPt3" width="2" height="2" x="-1" y="-1" stroke="currentColor" stroke-width=".242"/><rect id="gpPt4" width="2" height="2" x="-1" y="-1" fill="currentColor" stroke="currentColor" stroke-width=".242"/><circle id="gpPt5" cx="0" cy="0" r="1" stroke="currentColor" stroke-width=".242"/><use id="gpPt6" fill="currentColor" stroke="none" xlink:href="#gpPt5"/><path id="gpPt7" stroke="currentColor" stroke-width=".242" d="M0,-1.33 L-1.33,0.67 L1.33,0.67 z"/><use id="gpPt8" fill="currentColor" stroke="none" xlink:href="#gpPt7"/><use id="gpPt9" stroke="currentColor" transform="rotate(180)" xlink:href="#gpPt7"/><use id="gpPt10" fill="currentColor" stroke="none" xlink:href="#gpPt9"/><use id="gpPt11" stroke="currentColor" transform="rotate(45)" xlink:href="#gpPt3"/><use id="gpPt12" fill="currentColor" stroke="none" xlink:href="#gpPt11"/><path id="gpPt13" stroke="currentColor" stroke-width=".242" d="M0,1.330 L1.265,0.411 L0.782,-1.067 L-0.782,-1.076 L-1.265,0.411 z"/><use id="gpPt14" fill="currentColor" stroke="none" xlink:href="#gpPt13"/><filter id="textbox" width="1" height="1" x="0" y="0" filterUnits="objectBoundingBox"><feFlood flood-color="#fff" flood-opacity="1" result="bgnd"/><feComposite in="SourceGraphic" in2="bgnd" operator="atop"/></filter><filter id="greybox" width="1" height="1" x="0" y="0" filterUnits="objectBoundingBox"><feFlood flood-color="#d3d3d3" flood-opacity="1" result="grey"/><feComposite in="SourceGraphic" in2="grey" operator="atop"/></filter></defs><g fill="none" stroke="currentColor" stroke-linecap="butt" stroke-linejoin="miter" stroke-width="1.2" color="#000"><path stroke="#000" d="M56.08,16.51 L56.08,267.00 L390.06,267.00 L390.06,16.51 L56.08,16.51 Z"/><g fill="#000" stroke="none" font-family="Arial" font-size="11" text-anchor="start"><text transform="translate(97.83,82.71)"><tspan font-family="Arial">6</tspan></text></g><g fill="#000" stroke="none" font-family="Arial" font-size="11" text-anchor="start"><text transform="translate(97.83,207.96)"><tspan font-family="Arial">3</tspan></text></g><g fill="#000" stroke="none" font-family="Arial" font-size="11" text-anchor="start"><text transform="translate(167.41,129.68)"><tspan font-family="Arial">2</tspan></text></g><g fill="#000" stroke="none" font-family="Arial" font-size="11" text-anchor="start"><text transform="translate(236.99,82.71)"><tspan font-family="Arial">1</tspan></text></g><g fill="#000" stroke="none" font-family="Arial" font-size="11" text-anchor="start"><text transform="translate(236.99,207.96)"><tspan font-family="Arial">4</tspan></text></g><g fill="#000" stroke="none" font-family="Arial" font-size="11" text-anchor="start"><text transform="translate(250.90,160.99)"><tspan font-family="Arial">5</tspan></text></g><g fill="#000" stroke="none" font-family="Arial" font-size="11" text-anchor="start"><text transform="translate(334.40,160.99)"><tspan font-family="Arial">7</tspan></text></g></g><g id="gnuplot_plot_1"><title>gnuplot_plot_1</title><g fill="none" stroke="currentColor" stroke-linecap="butt" stroke-linejoin="miter" stroke-width="1.2" color="#000"><use color="#00F" transform="translate(111.74,79.13) scale(6.19)" xlink:href="#gpPt6"/><use color="#00F" transform="translate(111.74,204.38) scale(6.19)" xlink:href="#gpPt6"/><use color="#00F" transform="translate(167.41,141.75) scale(6.19)" xlink:href="#gpPt6"/><use color="#00F" transform="translate(223.07,79.13) scale(6.19)" xlink:href="#gpPt6"/><use color="#00F" transform="translate(223.07,204.38) scale(6.19)" xlink:href="#gpPt6"/><use color="#00F" transform="translate(250.90,141.75) scale(6.19)" xlink:href="#gpPt6"/><use color="#00F" transform="translate(334.40,141.75) scale(6.19)" xlink:href="#gpPt6"/></g></g><g id="gnuplot_plot_2"><title>gnuplot_plot_2</title><g fill="none" stroke="currentColor" stroke-linecap="butt" stroke-linejoin="miter" stroke-width="1.2" color="#000"><path stroke="#00F" d="M111.74,79.13 L167.41,141.75"/></g></g><g id="gnuplot_plot_3"><title>gnuplot_plot_3</title><g fill="none" stroke="currentColor" stroke-linecap="butt" stroke-linejoin="miter" stroke-width="1.2" color="#000"><path stroke="#00F" d="M111.74,204.38 L167.41,141.75"/></g></g><g id="gnuplot_plot_4"><title>gnuplot_plot_4</title><g fill="none" stroke="currentColor" stroke-linecap="butt" stroke-linejoin="miter" stroke-width="1.2" color="#000"><path stroke="#00F" d="M167.41,141.75 L223.07,79.13"/></g></g><g id="gnuplot_plot_5"><title>gnuplot_plot_5</title><g fill="none" stroke="currentColor" stroke-linecap="butt" stroke-linejoin="miter" stroke-width="1.2" color="#000"><path stroke="#00F" d="M167.41,141.75 L223.07,204.38"/></g></g><g id="gnuplot_plot_6"><title>gnuplot_plot_6</title><g fill="none" stroke="currentColor" stroke-linecap="butt" stroke-linejoin="miter" stroke-width="1.2" color="#000"><path stroke="#00F" d="M167.41,141.75 L250.90,141.75"/></g></g><g id="gnuplot_plot_7"><title>gnuplot_plot_7</title><g fill="none" stroke="currentColor" stroke-linecap="butt" stroke-linejoin="miter" stroke-width="1.2" color="#000"><path stroke="#00F" d="M250.90,141.75 L334.40,141.75"/></g></g><g fill="none" stroke="currentColor" stroke-linecap="butt" stroke-linejoin="miter" stroke-width="1.2" color="#000"><path stroke="#000" d="M56.08,16.51 L56.08,267.00 L390.06,267.00 L390.06,16.51 L56.08,16.51 Z"/></g></g></svg>